<svg xmlns="http://www.w3.org/2000/svg" width="580.2" height="269" viewBox="0 0 580.2 269" role="img" aria-label="console2svg output">
<style>
.c2.c { font-family: "JetBrains Mono","Cascadia Mono","Segoe UI Mono","Noto Sans Mono","SFMono-Regular",Menlo,Consolas,"DejaVu Sans Mono","Liberation Mono",monospace; font-size: 14px; }
.c2 text { dominant-baseline: alphabetic; }
.c2 .q { shape-rendering: crispEdges; }
.c2 .w { white-space: pre; }
.c2 .aa{fill:#FF5FAF}
.c2 .ab{fill:#FFD700}
.c2 .ac{fill:#AFD787}
.c2 .ad{fill:#87D7AF}
.c2 .ae{fill:#FF5F87}
.c2 .af{fill:#FFAF5F}
.c2 .ag{fill:#D7D75F}
.c2 .ah{fill:#AFD7AF}
.c2 .ai{fill:#87D7D7}
.c2 .aj{fill:#5FD7D7}
.c2 .ak{fill:#5FD7FF}
.c2 .al{fill:#5FAFFF}
.c2 .am{fill:#87AFD7}
.c2 .an{fill:#AF87D7}
.c2 .ao{fill:#D75FAF}
.c2 .ap{fill:#FF8787}
.c2 .aq{fill:#8787D7}
</style>
<rect width="580.2" height="269" fill="transparent"/>
<g class="c2 c" transform="translate(8 8)">
<rect width="739.2" height="378" fill="transparent"/>
<text class="aa w" x="8.4" y="14" textLength="25.2">_ _</text>
<text class="ab" x="126" y="14" textLength="8.4">_</text>
<text class="ac" x="193.2" y="14" textLength="8.4">_</text>
<text class="ad" x="210" y="14" textLength="8.4">_</text>
<text class="ae" x="436.8" y="14" textLength="8.4">_</text>
<text class="af" y="32" textLength="8.4">(</text>
<text class="ab w" x="8.4" y="32" textLength="42">_) |_</text>
<text class="ag" x="84" y="32" textLength="16.8">__</text>
<text class="ac" x="109.2" y="32" textLength="8.4">_</text>
<text class="ah" x="117.6" y="32" textLength="8.4">(</text>
<text class="ad" x="126" y="32" textLength="8.4">_</text>
<text class="ai" x="134.4" y="32" textLength="8.4">)</text>
<text class="aj" x="142.8" y="32" textLength="8.4">_</text>
<text class="ak w" x="159.6" y="32" textLength="33.6">__ (</text>
<text class="al w" x="201.6" y="32" textLength="25.2">) |</text>
<text class="am" x="226.8" y="32" textLength="8.4">_</text>
<text class="an" x="260.4" y="32" textLength="8.4">_</text>
<text class="ao" x="277.2" y="32" textLength="8.4">_</text>
<text class="aa w" x="285.6" y="32" textLength="67.2">_ ___  _</text>
<text class="ap" x="378" y="32" textLength="8.4">_</text>
<text class="af" x="403.2" y="32" textLength="8.4">_</text>
<text class="ab w" x="411.6" y="32" textLength="58.8">__| |__</text>
<text class="ag" y="50" textLength="8.4">|</text>
<text class="ac" x="16.8" y="50" textLength="8.4">|</text>
<text class="ah" x="33.6" y="50" textLength="8.4">_</text>
<text class="ad" x="42" y="50" textLength="8.4">_</text>
<text class="ai" x="50.4" y="50" textLength="8.4">|</text>
<text class="ak w" x="75.6" y="50" textLength="33.6">/ _`</text>
<text class="al w" x="117.6" y="50" textLength="25.2">| |</text>
<text class="aq" x="151.2" y="50" textLength="8.4">&apos;</text>
<text class="an w" x="159.6" y="50" textLength="25.2">_ \</text>
<text class="ao" x="184.8" y="50" textLength="16.8">|/</text>
<text class="aa w" x="201.6" y="50" textLength="58.8">| __| |</text>
<text class="ae" x="268.8" y="50" textLength="16.8">&apos;_</text>
<text class="ap" x="294" y="50" textLength="8.4">`</text>
<text class="af" x="310.8" y="50" textLength="8.4">_</text>
<text class="ab w" x="327.6" y="50" textLength="75.6">\| | | |/</text>
<text class="ag" x="411.6" y="50" textLength="8.4">_</text>
<text class="ac" x="420" y="50" textLength="16.8">_|</text>
<text class="ad" x="445.2" y="50" textLength="8.4">&apos;</text>
<text class="ai" x="453.6" y="50" textLength="8.4">_</text>
<text class="ak" x="470.4" y="50" textLength="8.4">\</text>
<text class="ak w" y="68" textLength="25.2">| |</text>
<text class="al" x="33.6" y="68" textLength="16.8">|_</text>
<text class="aq" x="67.2" y="68" textLength="8.4">|</text>
<text class="an" x="84" y="68" textLength="16.8">(_</text>
<text class="ao" x="100.8" y="68" textLength="8.4">|</text>
<text class="aa w" x="117.6" y="68" textLength="58.8">| | | |</text>
<text class="ae" x="184.8" y="68" textLength="8.4">|</text>
<text class="ap" x="201.6" y="68" textLength="8.4">|</text>
<text class="af" x="218.4" y="68" textLength="16.8">|_</text>
<text class="ab w" x="252" y="68" textLength="58.8">| | | |</text>
<text class="ag" x="319.2" y="68" textLength="8.4">|</text>
<text class="ac" x="336" y="68" textLength="8.4">|</text>
<text class="ah" x="352.8" y="68" textLength="8.4">|</text>
<text class="ad" x="361.2" y="68" textLength="8.4">_</text>
<text class="ai" x="369.6" y="68" textLength="8.4">|</text>
<text class="ak w" x="386.4" y="68" textLength="42">| (__</text>
<text class="al w" x="428.4" y="68" textLength="25.2">| |</text>
<text class="am" x="462" y="68" textLength="8.4">|</text>
<text class="an" x="478.8" y="68" textLength="8.4">|</text>
<text class="an" y="86" textLength="16.8">|_</text>
<text class="ao" x="16.8" y="86" textLength="16.8">|\</text>
<text class="aa w" x="33.6" y="86" textLength="67.2">__|  \__</text>
<text class="ae" x="100.8" y="86" textLength="16.8">,_</text>
<text class="ap" x="117.6" y="86" textLength="16.8">|_</text>
<text class="af" x="134.4" y="86" textLength="25.2">|_|</text>
<text class="ab w" x="168" y="86" textLength="67.2">|_|  \__</text>
<text class="ag" x="235.2" y="86" textLength="8.4">|</text>
<text class="ac" x="252" y="86" textLength="16.8">|_</text>
<text class="ah" x="268.8" y="86" textLength="8.4">|</text>
<text class="ai" x="285.6" y="86" textLength="8.4">|</text>
<text class="aj" x="294" y="86" textLength="8.4">_</text>
<text class="ak w" x="302.4" y="86" textLength="42">| |_|</text>
<text class="al" x="344.4" y="86" textLength="33.6">\__,</text>
<text class="am" x="378" y="86" textLength="8.4">_</text>
<text class="aq" x="386.4" y="86" textLength="8.4">|</text>
<text class="an" x="394.8" y="86" textLength="25.2">\__</text>
<text class="ao" x="420" y="86" textLength="16.8">_|</text>
<text class="aa w" x="436.8" y="86" textLength="50.4">_| |_|</text>
<text class="ab" x="8.4" y="122" textLength="8.4">_</text>
<text class="ad" x="109.2" y="122" textLength="8.4">_</text>
<text class="ak" x="159.6" y="122" textLength="8.4">_</text>
<text class="al" x="176.4" y="122" textLength="8.4">_</text>
<text class="am" x="210" y="122" textLength="8.4">_</text>
<text class="aa" x="277.2" y="122" textLength="8.4">_</text>
<text class="ad" x="512.4" y="122" textLength="8.4">_</text>
<text class="ak w" y="140" textLength="33.6">| |_</text>
<text class="al w" x="33.6" y="140" textLength="33.6">_  _</text>
<text class="an" x="92.4" y="140" textLength="16.8">_|</text>
<text class="ao" x="117.6" y="140" textLength="8.4">|</text>
<text class="aa w" x="126" y="140" textLength="67.2">_  (_) |</text>
<text class="ae" x="193.2" y="140" textLength="16.8">_(</text>
<text class="ap" x="218.4" y="140" textLength="8.4">)</text>
<text class="af" x="226.8" y="140" textLength="25.2">___</text>
<text class="ab w" x="268.8" y="140" textLength="42">| |__</text>
<text class="ag" x="336" y="140" textLength="8.4">_</text>
<text class="ac" x="344.4" y="140" textLength="16.8">__</text>
<text class="ai" x="378" y="140" textLength="8.4">_</text>
<text class="ak" x="394.8" y="140" textLength="16.8">__</text>
<text class="al" x="436.8" y="140" textLength="25.2">___</text>
<text class="aq" x="478.8" y="140" textLength="8.4">_</text>
<text class="an" x="487.2" y="140" textLength="25.2">__|</text>
<text class="ao" x="520.8" y="140" textLength="8.4">|</text>
<text class="aa" x="529.2" y="140" textLength="8.4">_</text>
<text class="aa w" y="158" textLength="50.4">| &apos;_ \</text>
<text class="ae" x="50.4" y="158" textLength="8.4">|</text>
<text class="ap" x="67.2" y="158" textLength="8.4">|</text>
<text class="af w" x="84" y="158" textLength="25.2">| |</text>
<text class="ab w" x="117.6" y="158" textLength="58.8">__| | |</text>
<text class="ag" x="184.8" y="158" textLength="16.8">__</text>
<text class="ac" x="201.6" y="158" textLength="16.8">|/</text>
<text class="ah" x="218.4" y="158" textLength="8.4">/</text>
<text class="ai" x="235.2" y="158" textLength="8.4">_</text>
<text class="aj" x="243.6" y="158" textLength="8.4">_</text>
<text class="ak w" x="252" y="158" textLength="42">| | &apos;</text>
<text class="al w" x="294" y="158" textLength="25.2">_ \</text>
<text class="am" x="327.6" y="158" textLength="8.4">/</text>
<text class="an w" x="344.4" y="158" textLength="25.2">_ \</text>
<text class="ao" x="369.6" y="158" textLength="8.4">|</text>
<text class="aa w" x="386.4" y="158" textLength="67.2">&apos;_ \ / _</text>
<text class="ae" x="462" y="158" textLength="8.4">\</text>
<text class="ap" x="470.4" y="158" textLength="8.4">/</text>
<text class="af" x="487.2" y="158" textLength="25.2">__|</text>
<text class="ab" x="520.8" y="158" textLength="25.2">__|</text>
<text class="ab w" y="176" textLength="42">| |_)</text>
<text class="ag" x="50.4" y="176" textLength="8.4">|</text>
<text class="ac" x="67.2" y="176" textLength="8.4">|</text>
<text class="ah" x="75.6" y="176" textLength="8.4">_</text>
<text class="ad" x="84" y="176" textLength="8.4">|</text>
<text class="aj" x="100.8" y="176" textLength="8.4">|</text>
<text class="ak" x="117.6" y="176" textLength="16.8">|_</text>
<text class="al w" x="151.2" y="176" textLength="25.2">| |</text>
<text class="am" x="184.8" y="176" textLength="8.4">|</text>
<text class="aq" x="193.2" y="176" textLength="8.4">_</text>
<text class="an" x="218.4" y="176" textLength="8.4">\</text>
<text class="ao" x="226.8" y="176" textLength="16.8">__</text>
<text class="aa w" x="252" y="176" textLength="58.8">\ | | |</text>
<text class="ae" x="319.2" y="176" textLength="8.4">|</text>
<text class="ap" x="336" y="176" textLength="8.4">(</text>
<text class="af" x="344.4" y="176" textLength="16.8">_)</text>
<text class="ab w" x="369.6" y="176" textLength="58.8">| | | |</text>
<text class="ag" x="445.2" y="176" textLength="16.8">__</text>
<text class="ac" x="462" y="176" textLength="16.8">/\</text>
<text class="ah" x="478.8" y="176" textLength="8.4">_</text>
<text class="ad" x="487.2" y="176" textLength="8.4">_</text>
<text class="aj" x="504" y="176" textLength="8.4">\</text>
<text class="ak" x="520.8" y="176" textLength="16.8">|_</text>
<text class="ak" y="194" textLength="8.4">|</text>
<text class="al" x="8.4" y="194" textLength="33.6">_.__</text>
<text class="am" x="42" y="194" textLength="8.4">/</text>
<text class="an" x="58.8" y="194" textLength="25.2">\__</text>
<text class="ao" x="84" y="194" textLength="16.8">,_</text>
<text class="aa w" x="100.8" y="194" textLength="67.2">|\__| |_</text>
<text class="ae" x="168" y="194" textLength="16.8">|\</text>
<text class="ap" x="184.8" y="194" textLength="16.8">__</text>
<text class="af w" x="201.6" y="194" textLength="25.2">| |</text>
<text class="ab w" x="226.8" y="194" textLength="67.2">___/ |_|</text>
<text class="ag" x="302.4" y="194" textLength="16.8">|_</text>
<text class="ac" x="319.2" y="194" textLength="16.8">|\</text>
<text class="ah" x="336" y="194" textLength="8.4">_</text>
<text class="ad" x="344.4" y="194" textLength="8.4">_</text>
<text class="ai" x="352.8" y="194" textLength="8.4">_</text>
<text class="aj" x="361.2" y="194" textLength="8.4">/</text>
<text class="ak w" x="369.6" y="194" textLength="42">|_| |</text>
<text class="al" x="411.6" y="194" textLength="33.6">_|\_</text>
<text class="am" x="445.2" y="194" textLength="8.4">_</text>
<text class="aq" x="453.6" y="194" textLength="8.4">_</text>
<text class="an" x="462" y="194" textLength="25.2">||_</text>
<text class="ao" x="487.2" y="194" textLength="16.8">__</text>
<text class="aa" x="504" y="194" textLength="42">/\__|</text>
</g>
</svg>